# xmcd
#
# Track frame offsets:
#	150
#	18204
#	37787
#	57813
#	75336
#	96060
#	114958
#	135241
#	155243
#	172142
#	187140
#	202675
#	236444
#
# Disc length: 4440 seconds
#
# Revision: 0
# Processed by: cddbd v1.5.1PL0 Copyright (c) Steve Scherf et al.
# Submitted via: dBpowerAMP V4.0
#
DISCID=9411560d
DTITLE=Thomas Helmig - El Camino
DYEAR=2004
DGENRE=Pop
TTITLE0=Gold digger
TTITLE1=Sundown
TTITLE2=I'm sorry
TTITLE3=Mystery
TTITLE4=El Camino
TTITLE5=Your frozen heart
TTITLE6=October rain
TTITLE7=You can't feel
TTITLE8=Dinner and drinks
TTITLE9=Swedish mile
TTITLE10=Ok Reneé
TTITLE11=Heartache in the city
TTITLE12=DATA
EXTD=
EXTT0=
EXTT1=
EXTT2=
EXTT3=
EXTT4=
EXTT5=
EXTT6=
EXTT7=
EXTT8=
EXTT9=
EXTT10=
EXTT11=
EXTT12=
PLAYORDER=
